<?xml version="1.0" encoding="iso-8859-1"?>
<!-- Generator: Adobe Illustrator 16.0.0, SVG Export Plug-In . SVG Version: 6.00 Build 0)  -->
<!DOCTYPE svg PUBLIC "-//W3C//DTD SVG 1.1//EN" "http://www.w3.org/Graphics/SVG/1.1/DTD/svg11.dtd">
<svg xmlns="http://www.w3.org/2000/svg" xmlns:xlink="http://www.w3.org/1999/xlink" version="1.1" id="Capa_1" x="0px" y="0px" width="512px" height="512px" viewBox="0 0 30.73 30.73" style="enable-background:new 0 0 30.73 30.73;" xml:space="preserve">
<g>
	<g>
		<polygon points="7.449,9.421 7.449,18.495 13.463,18.495 13.463,17.513 8.432,17.513 8.432,9.199   " fill="#FFFFFF"/>
		<path d="M29.271,4.206v13.306H17.385l0.176,0.377l0.143,0.605h12.554V3.224H17.242c0.242,0.327,0.21,0.661,0.251,0.988    L29.271,4.206z" fill="#FFFFFF"/>
		<rect x="24.691" y="15.41" width="3.955" height="1.418" fill="#FFFFFF"/>
		<circle cx="4.138" cy="10.144" r="1.698" fill="#FFFFFF"/>
		<polygon points="3.181,20.398 3.187,20.509 3.937,20.509 3.937,19.81 3.937,19.734 3.937,16.71 4.364,16.71 4.364,19.734     4.364,19.81 4.364,20.509 5.113,20.509 5.121,20.398 5.797,20.509 6.377,20.509 6.377,19.881 5.696,19.734 5.579,19.734     5.579,16.71 5.579,16.425 5.579,16.039 5.688,16.039 5.689,15.335 6.299,15.327 6.23,12.383 4.755,12.098 4.107,12.849     3.48,12.098 2.104,12.38 2.018,15.406 2.601,15.406 2.632,16.039 2.721,16.039 2.721,16.425 2.721,16.71 2.721,19.734     2.604,19.734 1.923,19.881 1.923,20.509 2.503,20.509   " fill="#FFFFFF"/>
		<path d="M15.255,13.667c-0.594,0.035-0.819-0.697-0.819-0.697l-1.039,0.197l-0.082,2.874h0.541l0.029,0.587h0.082v0.359v0.265    v2.806h-0.108c0,0-0.221,0.041-0.632,0.138s0,0.583,0,0.583h1.87v-0.65v-0.07v-2.807h0.396l0.303,1.207l-0.303,1.6v0.07v0.65    h1.868c0,0,0.41-0.495,0-0.583c-0.409-0.089-0.631-0.138-0.631-0.138h-0.109l0.297-1.573l-0.297-1.231v-0.265v-0.359h0.102v-0.652    l0.566-0.01l-0.064-2.778l-1.16-0.218C16.064,12.971,15.848,13.633,15.255,13.667z" fill="#FFFFFF"/>
		<path d="M16.52,10.018l0.111-0.586l-0.7,0.2l-0.323-0.675L15.01,9.58l-0.463-0.537l-0.218,0.709l-0.743-0.244l0.28,0.626    l-0.541,0.152l0.455,0.413c-0.019,0.064-0.04,0.129-0.051,0.197c-0.014,0.084-0.021,0.171-0.021,0.26    c0,0.871,0.706,1.576,1.576,1.576s1.575-0.705,1.575-1.576c0-0.174-0.034-0.338-0.086-0.496l0.32-0.441L16.52,10.018z" fill="#FFFFFF"/>
		<path d="M7.61,7.37L6.559,9.206c0,0,3.369-0.52,5.698-1.209c2.33-0.691,4.608-1.975,4.608-3.87c0-2.189-2.633-3.965-5.88-3.965    c-3.246,0-5.878,1.775-5.878,3.965C5.107,5.469,6.098,6.652,7.61,7.37z M11.678,6.462h-1.431V5.1h1.431V6.462z M9.31,2.549    c0.074-0.209,0.186-0.396,0.338-0.562c0.151-0.165,0.345-0.299,0.582-0.402c0.236-0.104,0.524-0.155,0.864-0.155    c0.335,0,0.618,0.044,0.847,0.134c0.229,0.089,0.415,0.204,0.558,0.344c0.142,0.14,0.247,0.293,0.313,0.461    c0.067,0.168,0.104,0.327,0.114,0.479c0,0.211-0.027,0.382-0.083,0.512c-0.056,0.131-0.127,0.24-0.217,0.328    c-0.089,0.086-0.189,0.159-0.299,0.217c-0.11,0.057-0.223,0.115-0.338,0.175c-0.078,0.042-0.143,0.083-0.192,0.124    c-0.051,0.042-0.089,0.085-0.118,0.131c-0.027,0.045-0.047,0.098-0.059,0.158c-0.011,0.06-0.016,0.128-0.016,0.207H10.33    c-0.005-0.069-0.007-0.156-0.007-0.262c0-0.11,0.014-0.222,0.041-0.337c0.028-0.114,0.076-0.228,0.146-0.337    c0.068-0.11,0.169-0.202,0.303-0.275c0.055-0.028,0.119-0.058,0.192-0.09c0.074-0.031,0.144-0.067,0.21-0.106    s0.123-0.086,0.169-0.141c0.045-0.055,0.069-0.122,0.069-0.2c0-0.234-0.133-0.351-0.4-0.351c-0.166,0-0.282,0.059-0.351,0.178    c-0.069,0.12-0.096,0.255-0.083,0.407h-1.44C9.193,2.97,9.236,2.758,9.31,2.549z" fill="#FFFFFF"/>
		<circle cx="23.448" cy="22.747" r="1.029" fill="#FFFFFF"/>
		<circle cx="28.173" cy="22.746" r="1.029" fill="#FFFFFF"/>
		<circle cx="18.216" cy="22.747" r="1.03" fill="#FFFFFF"/>
		<circle cx="12.633" cy="22.746" r="1.029" fill="#FFFFFF"/>
		<circle cx="7.244" cy="22.649" r="1.03" fill="#FFFFFF"/>
		<circle cx="1.882" cy="22.648" r="1.029" fill="#FFFFFF"/>
		<circle cx="23.447" cy="25.967" r="1.482" fill="#FFFFFF"/>
		<polygon points="24.02,27.67 23.473,28.327 22.908,27.67 21.6,27.919 21.6,30.527 25.296,30.527 25.238,27.939   " fill="#FFFFFF"/>
		<circle cx="18.076" cy="25.967" r="1.482" fill="#FFFFFF"/>
		<polygon points="18.648,27.67 18.104,28.327 17.538,27.67 16.229,27.939 16.229,30.527 19.925,30.527 19.852,27.939   " fill="#FFFFFF"/>
		<circle cx="20.688" cy="23.898" r="1.084" fill="#FFFFFF"/>
		<path d="M22.037,27.168c-0.191-0.364-0.327-0.761-0.327-1.202c0-0.291,0.079-0.56,0.167-0.822h-0.105h-0.267h-0.401l-0.398,0.481    l-0.412-0.481h-0.425h-0.236c0.11,0.254,0.173,0.531,0.173,0.822c0,0.476-0.168,0.912-0.443,1.27h2.679L22.037,27.168z" fill="#FFFFFF"/>
		<circle cx="12.633" cy="25.967" r="1.482" fill="#FFFFFF"/>
		<polygon points="13.204,27.67 12.658,28.327 12.093,27.67 10.784,27.939 10.784,30.527 14.48,30.527 14.407,27.939   " fill="#FFFFFF"/>
		<circle cx="15.242" cy="23.898" r="1.084" fill="#FFFFFF"/>
		<path d="M16.592,27.168c-0.191-0.364-0.328-0.761-0.328-1.202c0-0.291,0.079-0.56,0.168-0.822h-0.106h-0.265h-0.401l-0.398,0.481    l-0.414-0.481h-0.424h-0.238c0.11,0.254,0.173,0.531,0.173,0.822c0,0.476-0.168,0.912-0.443,1.27h2.678L16.592,27.168z" fill="#FFFFFF"/>
		<circle cx="28.883" cy="25.898" r="1.482" fill="#FFFFFF"/>
		<polygon points="30.656,27.879 29.454,27.601 28.908,28.259 28.343,27.601 27.035,27.898 27.035,30.459 30.73,30.459   " fill="#FFFFFF"/>
		<circle cx="26.047" cy="23.831" r="1.084" fill="#FFFFFF"/>
		<path d="M27.398,27.101c-0.192-0.364-0.328-0.762-0.328-1.203c0-0.291,0.078-0.561,0.166-0.821h-0.104h-0.266h-0.401l-0.398,0.479    l-0.414-0.479h-0.424h-0.236c0.109,0.254,0.172,0.53,0.172,0.821c0,0.477-0.167,0.912-0.441,1.27H27.4L27.398,27.101z" fill="#FFFFFF"/>
		<circle cx="7.328" cy="26.009" r="1.482" fill="#FFFFFF"/>
		<polygon points="7.9,27.712 7.354,28.369 6.789,27.712 5.48,27.939 5.48,30.569 9.176,30.569 9.101,27.939   " fill="#FFFFFF"/>
		<circle cx="9.938" cy="23.939" r="1.084" fill="#FFFFFF"/>
		<path d="M11.289,27.21c-0.193-0.363-0.328-0.761-0.328-1.201c0-0.291,0.078-0.562,0.167-0.822h-0.105h-0.265h-0.401l-0.399,0.479    l-0.414-0.479H9.12H8.883c0.109,0.254,0.172,0.529,0.172,0.822c0,0.476-0.168,0.911-0.443,1.27h2.678L11.289,27.21z" fill="#FFFFFF"/>
		<circle cx="1.884" cy="26.009" r="1.482" fill="#FFFFFF"/>
		<polygon points="2.456,27.712 1.909,28.369 1.344,27.712 0,27.939 0.036,30.569 3.732,30.569 3.656,27.939   " fill="#FFFFFF"/>
		<circle cx="4.494" cy="23.941" r="1.084" fill="#FFFFFF"/>
		<path d="M5.846,27.278L5.845,27.21c-0.193-0.363-0.328-0.761-0.328-1.201c0-0.291,0.079-0.562,0.167-0.822H5.578H5.312h-0.4    l-0.399,0.479l-0.414-0.479H3.675H3.438c0.109,0.254,0.172,0.529,0.172,0.822c0,0.476-0.168,0.911-0.444,1.27L5.846,27.278    L5.846,27.278z" fill="#FFFFFF"/>
	</g>
</g>
<g>
</g>
<g>
</g>
<g>
</g>
<g>
</g>
<g>
</g>
<g>
</g>
<g>
</g>
<g>
</g>
<g>
</g>
<g>
</g>
<g>
</g>
<g>
</g>
<g>
</g>
<g>
</g>
<g>
</g>
</svg>
