<?xml version="1.0" encoding="iso-8859-1"?>
<!-- Generator: Adobe Illustrator 18.1.1, SVG Export Plug-In . SVG Version: 6.00 Build 0)  -->
<svg xmlns="http://www.w3.org/2000/svg" xmlns:xlink="http://www.w3.org/1999/xlink" version="1.1" id="Capa_1" x="0px" y="0px" viewBox="0 0 101.682 101.682" style="enable-background:new 0 0 101.682 101.682;" xml:space="preserve" width="512px" height="512px">
<g>
	<g>
		<path d="M47.781,46.817l0.855-6.961l-1.353-1.113l2.992-0.004h3.271l-1.349,1.109l0.877,6.961l5.454-10.715    c9.505,1.274,16.334,5.34,16.345,15.249l-48.887,0.061c-0.014-9.903,6.807-13.986,16.316-15.282L47.781,46.817z M86.279,84.935    c-2.72-0.064-5.397-2.856-6.424-6.596c-0.021,0.004-0.029,0.021-0.05,0.025c-0.487,0.075-0.984-0.505-1.117-1.296    c-0.132-0.795,0.147-1.507,0.626-1.589c0.036-0.007,0.072,0.018,0.104,0.018c-0.215-5.758,3.189-8.403,6.982-8.417    c3.679,0.093,6.607,2.262,6.746,8.417c0.029,0,0.061-0.021,0.089-0.018c0.483,0.082,0.762,0.798,0.63,1.589    c-0.132,0.762-0.601,1.313-1.063,1.285C91.794,82.079,88.756,84.821,86.279,84.935z M86.519,69.457h-0.465    c0.118,0,0.233,0.004,0.347,0.011C86.444,69.467,86.479,69.457,86.519,69.457z M50.505,34.42c-0.032,0-0.061-0.007-0.097,0    c-0.025,0-0.047,0-0.072,0H50.505z M50.018,6.061c0.186,0,0.369,0.011,0.555,0.018c0.061,0,0.122-0.014,0.186-0.018H50.018z     M86.408,69.467c0.043,0,0.075-0.011,0.118-0.011h-0.469C86.172,69.457,86.286,69.464,86.408,69.467z M86.34,84.939    c-0.021,0-0.039-0.004-0.061-0.004c-0.014,0-0.029,0-0.05,0.004H86.34z M40.13,23.998c0.029-0.004,0.05-0.032,0.075-0.043    c1.646,5.934,5.898,10.364,10.207,10.461c3.933-0.186,8.747-4.549,10.35-10.457c0.741,0.043,1.474-0.83,1.689-2.047    c0.211-1.263-0.243-2.391-1.006-2.52c-0.05-0.007-0.093,0.021-0.143,0.025C61.066,9.65,56.431,6.218,50.58,6.075    c-6.02,0.036-11.409,4.23-11.059,13.371c-0.054,0-0.111-0.039-0.168-0.032c-0.755,0.136-1.206,1.267-0.991,2.53    C38.569,23.211,39.36,24.13,40.13,23.998z M23.345,56.233l-1.84-1.84l-4.839,4.839c0.523-12.165,7.423-22.693,17.422-28.348v-2.97    c-11.481,5.902-19.473,17.662-20.024,31.308l-4.824-4.828l-1.84,1.84l7.97,7.977L23.345,56.233z M86.959,64.206l7.97-7.977    l-1.84-1.84l-4.824,4.828c-0.544-13.646-8.543-25.406-20.027-31.308v2.97c10.003,5.655,16.899,16.18,17.425,28.348l-4.842-4.839    l-1.843,1.84L86.959,64.206z M15.403,84.935c-2.716-0.064-5.393-2.856-6.428-6.596c-0.014,0.004-0.029,0.021-0.047,0.025    c-0.483,0.075-0.984-0.505-1.117-1.296c-0.14-0.795,0.147-1.507,0.626-1.589c0.036-0.007,0.068,0.018,0.104,0.018    c-0.215-5.758,3.185-8.403,6.979-8.417c3.679,0.093,6.603,2.262,6.743,8.417c0.029,0,0.061-0.021,0.093-0.018    c0.48,0.082,0.762,0.798,0.626,1.589c-0.129,0.762-0.594,1.313-1.063,1.285C20.918,82.079,17.88,84.821,15.403,84.935z     M15.643,69.457h-0.465c0.122,0,0.233,0.004,0.351,0.011C15.568,69.467,15.604,69.457,15.643,69.457z M91.393,86.002l-3.446,6.746    l-0.544-4.391l0.852-0.694h-2.065h-1.886l0.855,0.694l-0.548,4.391l-3.439-6.746c-5.995,0.809-10.296,3.375-10.296,9.62h30.807    C101.682,89.38,97.381,86.81,91.393,86.002z M20.518,86.002l-3.446,6.746l-0.548-4.391l0.855-0.694h-2.065h-1.886l0.852,0.694    l-0.544,4.391l-3.446-6.746C4.302,86.81,0,89.376,0,95.622h30.807C30.807,89.38,26.505,86.81,20.518,86.002z M15.529,69.467    c0.039,0,0.075-0.011,0.115-0.011h-0.465C15.296,69.457,15.411,69.464,15.529,69.467z M15.461,84.939    c-0.018,0-0.039-0.004-0.057-0.004c-0.014,0-0.032,0-0.047,0.004H15.461z" fill="#FFFFFF"/>
	</g>
</g>
<g>
</g>
<g>
</g>
<g>
</g>
<g>
</g>
<g>
</g>
<g>
</g>
<g>
</g>
<g>
</g>
<g>
</g>
<g>
</g>
<g>
</g>
<g>
</g>
<g>
</g>
<g>
</g>
<g>
</g>
</svg>
