<!-- Generated by IcoMoon.io -->
<svg version="1.1" xmlns="http://www.w3.org/2000/svg" width="1024" height="1024" viewBox="0 0 1024 1024">
<title></title>
<g id="icomoon-ignore">
</g>
<path fill="#000" d="M376.744 448.333c-38.4 68.608-76.8 135.68-84.992 149.504l-15.36 25.6 16.896 34.304c9.216 19.456 18.432 33.792 20.992 32.256 2.048-1.536 3.072 0.512 1.536 4.096-2.048 5.12 19.968 6.144 116.224 5.12 65.536-1.024 119.808-2.048 120.32-3.072 2.048-2.048-61.952-156.672-65.024-156.672-1.536 0-10.24 18.432-19.968 40.96l-16.896 40.96h-80.896l19.456-32.256c10.752-17.408 37.376-63.488 59.392-102.4 37.888-67.072 48.64-82.944 41.472-59.392-2.56 7.168-1.536 9.728 1.536 7.68 3.072-1.536 7.168-0.512 9.216 2.56 2.56 4.096 1.536 4.608-3.072 2.048-4.096-2.56-5.632-1.536-4.096 3.072 1.536 4.096 5.632 6.656 8.704 5.632 3.584-0.512 5.12 1.024 3.072 4.096-3.072 4.608 20.992 51.2 26.624 51.2 1.024 0 0.512-2.56-1.536-6.144s-1.536-4.096 2.56-2.048c3.072 2.048 4.608 5.632 3.072 8.192-4.608 7.68 12.288 36.864 18.944 32.768 3.584-2.048 4.096-1.536 2.048 2.048-3.072 5.632 19.968 52.224 26.112 52.224 1.024 0 0.512-2.56-1.536-6.144s-1.536-4.096 2.56-2.048c3.072 2.048 4.608 5.632 3.072 8.192-4.608 7.68 12.288 36.864 18.944 32.768 3.584-2.048 4.096-1.536 2.048 2.048-4.096 6.656 26.624 63.488 32.768 59.904 2.048-1.536 3.584 1.024 3.072 5.632-0.512 7.168 6.656 8.192 50.688 7.68 28.16-0.512 51.712-2.048 52.736-3.072s-2.56-8.192-7.68-16.384c-5.632-7.68-52.224-88.064-103.936-178.176-51.2-90.112-95.744-166.912-98.304-170.496-3.584-4.096-19.968-6.144-48.128-6.144h-42.496l-70.144 123.904z"></path>
</svg>
