<?xml version="1.0" encoding="UTF-8" standalone="no"?>
<svg
   xmlns:dc="http://purl.org/dc/elements/1.1/"
   xmlns:cc="http://creativecommons.org/ns#"
   xmlns:rdf="http://www.w3.org/1999/02/22-rdf-syntax-ns#"
   xmlns:svg="http://www.w3.org/2000/svg"
   xmlns="http://www.w3.org/2000/svg"
   id="svg7"
   viewBox="0 0 471.21515 375.14084"
   height="375.14084"
   width="471.21515"
   version="1.1">
  <metadata
     id="metadata13">
    <rdf:RDF>
      <cc:Work
         rdf:about="">
        <dc:format>image/svg+xml</dc:format>
        <dc:type
           rdf:resource="http://purl.org/dc/dcmitype/StillImage" />
      </cc:Work>
    </rdf:RDF>
  </metadata>
  <defs
     id="defs11" />
  <title
     id="title2" />
  <g
     transform="translate(-276.392,-324.429)"
     id="icomoon-ignore" />
  <path
     style="fill:#000000"
     id="path5"
     d="m 100.352,123.904 c -38.4,68.608 -76.8,135.68 -84.992,149.504 L 0,299.008 16.896,333.312 c 9.216,19.456 18.432,33.792 20.992,32.256 2.048,-1.536 3.072,0.512 1.536,4.096 -2.048,5.12 19.968,6.144 116.224,5.12 65.536,-1.024 119.808,-2.048 120.32,-3.072 2.048,-2.048 -61.952,-156.672 -65.024,-156.672 -1.536,0 -10.24,18.432 -19.968,40.96 L 174.08,296.96 H 93.184 l 19.456,-32.256 c 10.752,-17.408 37.376,-63.488 59.392,-102.4 37.888,-67.072 48.64,-82.944 41.472,-59.392 -2.56,7.168 -1.536,9.728 1.536,7.68 3.072,-1.536 7.168,-0.512 9.216,2.56 2.56,4.096 1.536,4.608 -3.072,2.048 -4.096,-2.56 -5.632,-1.536 -4.096,3.072 1.536,4.096 5.632,6.656 8.704,5.632 3.584,-0.512 5.12,1.024 3.072,4.096 -3.072,4.608 20.992,51.2 26.624,51.2 1.024,0 0.512,-2.56 -1.536,-6.144 -2.048,-3.584 -1.536,-4.096 2.56,-2.048 3.072,2.048 4.608,5.632 3.072,8.192 -4.608,7.68 12.288,36.864 18.944,32.768 3.584,-2.048 4.096,-1.536 2.048,2.048 -3.072,5.632 19.968,52.224 26.112,52.224 1.024,0 0.512,-2.56 -1.536,-6.144 -2.048,-3.584 -1.536,-4.096 2.56,-2.048 3.072,2.048 4.608,5.632 3.072,8.192 -4.608,7.68 12.288,36.864 18.944,32.768 3.584,-2.048 4.096,-1.536 2.048,2.048 -4.096,6.656 26.624,63.488 32.768,59.904 2.048,-1.536 3.584,1.024 3.072,5.632 -0.512,7.168 6.656,8.192 50.688,7.68 28.16,-0.512 51.712,-2.048 52.736,-3.072 1.024,-1.024 -2.56,-8.192 -7.68,-16.384 C 457.728,347.136 411.136,266.752 359.424,176.64 308.224,86.528 263.68,9.728 261.12,6.144 257.536,2.048 241.152,0 212.992,0 h -42.496 z" />
</svg>
