<?xml version="1.0" encoding="utf-8"?>
<!-- Generator: Adobe Illustrator 16.0.0, SVG Export Plug-In . SVG Version: 6.00 Build 0)  -->
<!DOCTYPE svg PUBLIC "-//W3C//DTD SVG 1.1//EN" "http://www.w3.org/Graphics/SVG/1.1/DTD/svg11.dtd">
<svg version="1.1" id="Capa_1" xmlns="http://www.w3.org/2000/svg" xmlns:xlink="http://www.w3.org/1999/xlink" x="0px" y="0px"
	 width="800px" height="800px" viewBox="-102.361 20.945 800 800" enable-background="new -102.361 20.945 800 800"
	 xml:space="preserve">
<title>food_030-beef-steak-meat-eat</title>
<desc>Created with Sketch.</desc>
<g>
	<g transform="translate(-477.000000, -141.000000)">
		<g transform="translate(477.000000, 144.000000)">
			<path d="M-15.345,495.112c72.222,64.919,132.812,63.918,251.336,23.943c67.68-22.83,93.576-28.656,124.836-23.779
				c35.747,5.577,56.431,18.395,82.436,45.568c2.525,2.64,11.075,11.759,12.151,12.896c36.295,38.311,65.566,51.981,120.511,44.453
				c132.12-18.097,131.709-223.535,11.019-358.312C465.082,103.794,228.11,31.904,76.522,94.149
				c-159.89,65.654-213.834,284.639-97.664,395.589C-19.217,491.577-17.286,493.367-15.345,495.112z M90.26,127.609
				C226.664,71.6,447.76,138.672,559.999,264.013c104.722,116.948,105.061,285.461,11.018,298.345
				c-41.857,5.735-60.368-2.912-89.345-33.496c-0.955-1.009-9.592-10.223-12.274-13.027
				c-31.028-32.421-58.309-49.327-102.993-56.298c-39.282-6.128-68.367,0.414-141.976,25.242
				C117.156,520.963,68.415,521.766,8.837,468.213c-1.669-1.501-3.334-3.044-4.996-4.632
				C-92.595,371.479-46.338,183.699,90.26,127.609z"/>
			<path d="M-83.323,448.177c-1.414,61.65,19.944,118.447,62.18,158.786c1.925,1.842,3.858,3.63,5.799,5.376
				c72.222,64.919,132.812,63.918,251.336,23.94c67.68-22.827,93.575-28.654,124.836-23.777
				c35.747,5.576,56.431,18.395,82.436,45.568c2.525,2.64,11.075,11.759,12.151,12.896c36.296,38.311,65.566,51.981,120.511,44.453
				c62.121-8.51,98.15-60.944,100.21-133.797c0.307-10.877,0.051-120.953,0.006-126.356l-36.17,0.303
				c0.044,5.374,0.3,114.653,0.006,125.029c-1.604,56.778-26.619,93.184-68.961,98.982c-41.856,5.734-60.367-2.912-89.344-33.494
				c-0.956-1.011-9.592-10.225-12.275-13.027c-31.028-32.421-58.309-49.328-102.993-56.3c-39.281-6.128-68.366,0.415-141.975,25.244
				C117.158,638.187,68.417,638.99,8.838,585.437c-1.669-1.499-3.334-3.044-4.996-4.632c-34.545-32.994-52.19-79.917-51.001-131.799
				c0.203-8.918,0.06-103.312,0.001-106.731l-36.167,0.612C-83.268,346.236-83.123,439.474-83.323,448.177z"/>
		</g>
	</g>
</g>
<ellipse fill="none" stroke="#000000" stroke-width="24" stroke-miterlimit="10" cx="153.356" cy="296.08" rx="62.709" ry="55.418"/>
</svg>
