<?xml version="1.0" encoding="iso-8859-1"?>
<!-- Generator: Adobe Illustrator 19.0.0, SVG Export Plug-In . SVG Version: 6.00 Build 0)  -->
<svg xmlns="http://www.w3.org/2000/svg" xmlns:xlink="http://www.w3.org/1999/xlink" version="1.1" id="Capa_1" x="0px" y="0px" viewBox="0 0 512 512" style="enable-background:new 0 0 512 512;" xml:space="preserve" width="512px" height="512px">
<g>
	<g>
		<path d="M103.765,230.435l0.024-1.622c9.414-1.915,26.075-7.085,39.794-20.805c19.781-19.78,23.667-47.438,23.821-48.605    l1.298-9.701l-9.693,1.282c-1.167,0.154-29.07,4.009-48.851,23.789c-2.602,2.602-4.158,5.308-7.158,8.048v-16.419l0.765,0.033    l0.024-1.622c9.414-1.915,26.075-7.085,39.794-20.805c19.781-19.78,23.698-47.438,23.853-48.605l1.282-9.701l-9.701,1.282    c-1.007,0.133-21.727,3.03-40.099,16.521c0.367-2.96,0.582-5.994,0.582-9.085c0-27.849-16.7-51.391-17.411-52.379L96,33.575    l-6.089,8.467C89.2,43.03,72.5,66.572,72.5,94.421c0,3.092,0.215,6.125,0.582,9.086C54.711,90.015,33.99,87.118,32.983,86.985    l-9.701-1.282l1.282,9.701c0.154,1.167,4.009,28.824,23.789,48.605c13.721,13.72,30.318,18.89,39.733,20.805l-0.351,1.622    L88,166.403v16.42c-2-2.74-4.061-5.446-6.662-8.047c-19.78-19.781-47.313-23.636-48.479-23.79l-9.639-1.282l1.313,9.701    c0.154,1.167,4.024,28.824,23.805,48.605c13.721,13.72,30.326,18.89,39.741,20.805l-0.347,1.622L88,230.403v16.42    c-2-2.74-4.061-5.446-6.662-8.047c-19.78-19.781-47.313-23.636-48.479-23.79l-9.639-1.282l1.313,9.701    c0.154,1.167,4.024,28.824,23.805,48.604c13.721,13.72,30.326,18.89,39.741,20.805l-0.347,1.622L88,294.403v16.419    c-2-2.74-4.061-5.446-6.662-8.047c-19.78-19.781-47.313-23.636-48.479-23.79l-9.639-1.282l1.313,9.701    c0.154,1.167,4.024,28.824,23.805,48.604c13.721,13.72,30.326,18.89,39.741,20.805l-0.347,1.622L88,358.403v16.419    c-2-2.74-4.061-5.446-6.662-8.047c-19.78-19.781-47.313-23.636-48.479-23.79l-9.639-1.282l1.313,9.701    c0.154,1.167,4.024,28.824,23.805,48.604c13.721,13.72,30.326,18.89,39.741,20.805l-0.347,1.622L88,422.403v56.018h15v-56.018    l0.765,0.032l0.024-1.622c9.414-1.915,26.075-7.085,39.794-20.805c19.781-19.78,23.667-47.438,23.821-48.604l1.298-9.701    l-9.693,1.282c-1.167,0.154-29.07,4.009-48.851,23.789c-2.602,2.602-4.158,5.308-7.158,8.048v-16.419l0.765,0.032l0.024-1.622    c9.414-1.915,26.075-7.085,39.794-20.805c19.781-19.78,23.667-47.438,23.821-48.604l1.298-9.701l-9.693,1.282    c-1.167,0.154-29.07,4.009-48.851,23.789c-2.602,2.602-4.158,5.308-7.158,8.048v-16.419l0.765,0.032l0.024-1.622    c9.414-1.915,26.075-7.085,39.794-20.805c19.781-19.78,23.667-47.437,23.821-48.604l1.298-9.701l-9.693,1.282    c-1.167,0.154-29.07,4.009-48.851,23.789c-2.602,2.602-4.158,5.308-7.158,8.048v-16.419L103.765,230.435z M121.02,185.381    c9.044-9.044,20.465-14.078,28.779-16.76c-2.682,8.317-7.716,19.737-16.76,28.78c-9.07,9.071-19.967,13.497-27.677,15.627    C107.473,205.355,111.887,194.514,121.02,185.381z M58.96,197.401c-9.044-9.044-14.078-20.465-16.76-28.779    c8.317,2.682,19.737,7.716,28.78,16.76c9.071,9.07,13.497,19.967,15.627,27.677C78.935,210.948,68.093,206.534,58.96,197.401z     M58.96,261.401c-9.044-9.044-14.078-20.465-16.76-28.779c8.317,2.682,19.737,7.716,28.78,16.76    c9.071,9.07,13.497,19.967,15.627,27.677C78.935,274.948,68.093,270.534,58.96,261.401z M58.96,325.401    c-9.044-9.044-14.078-20.465-16.76-28.779c8.317,2.682,19.737,7.716,28.78,16.76c9.071,9.07,13.497,19.967,15.627,27.677    C78.935,338.948,68.093,334.534,58.96,325.401z M58.96,389.401c-9.044-9.044-14.078-20.465-16.76-28.779    c8.317,2.682,19.737,7.716,28.78,16.76c9.071,9.07,13.497,19.967,15.627,27.677C78.935,402.948,68.093,398.534,58.96,389.401z     M121.02,377.381c9.044-9.044,20.465-14.078,28.779-16.76c-2.682,8.317-7.716,19.737-16.76,28.78    c-9.07,9.071-19.967,13.497-27.677,15.627C107.473,397.355,111.887,386.514,121.02,377.381z M121.02,313.381    c9.044-9.044,20.465-14.078,28.779-16.76c-2.682,8.317-7.716,19.737-16.76,28.78c-9.07,9.071-19.967,13.497-27.677,15.627    C107.473,333.355,111.887,322.514,121.02,313.381z M121.02,249.381c9.044-9.044,20.465-14.078,28.779-16.76    c-2.682,8.317-7.716,19.737-16.76,28.78c-9.07,9.071-19.967,13.497-27.677,15.627C107.473,269.355,111.887,258.514,121.02,249.381    z M121.02,121.381c9.044-9.044,20.465-14.078,28.779-16.76c-2.682,8.317-7.716,19.737-16.76,28.78    c-9.07,9.071-19.967,13.497-27.677,15.627C107.473,141.355,111.887,130.514,121.02,121.381z M58.96,133.401    c-9.044-9.044-14.078-20.465-16.76-28.779c8.317,2.682,19.737,7.716,28.78,16.76c9.071,9.07,13.497,19.967,15.627,27.677    C78.935,146.948,68.093,142.534,58.96,133.401z M95.987,127.448c-3.998-8.151-8.487-20.167-8.487-33.027    c0-12.8,4.509-24.85,8.513-33.027c3.998,8.15,8.487,20.167,8.487,33.027C104.5,107.22,99.992,119.269,95.987,127.448z" fill="#FFFFFF"/>
	</g>
</g>
<g>
	<g>
		<path d="M423.773,230.44l0.024-1.622c9.414-1.915,26.074-7.085,39.794-20.805c19.781-19.78,23.667-47.438,23.821-48.605    l1.298-9.701l-9.693,1.282c-1.167,0.154-29.07,4.009-48.851,23.789c-2.602,2.602-4.158,5.308-7.158,8.048v-16.419l0.757,0.028    l0.024-1.622c9.414-1.915,26.074-7.085,39.794-20.805c19.781-19.78,23.698-47.438,23.852-48.605l1.282-9.701l-9.701,1.282    c-1.007,0.133-21.727,3.03-40.099,16.521c0.367-2.96,0.582-5.994,0.582-9.085c0-27.849-16.7-51.391-17.411-52.379L416,33.575    l-6.089,8.467C409.2,43.03,392.5,66.572,392.5,94.421c0,3.092,0.215,6.125,0.582,9.086    c-18.372-13.491-39.092-16.388-40.099-16.521l-9.701-1.282l1.282,9.701c0.154,1.167,4.009,28.824,23.789,48.605    c13.721,13.72,30.319,18.89,39.733,20.805l-0.351,1.622l0.265-0.032v16.42c-2-2.74-4.06-5.446-6.662-8.047    c-19.78-19.781-47.313-23.636-48.479-23.79l-9.639-1.282l1.314,9.701c0.154,1.167,4.024,28.824,23.805,48.605    c13.721,13.72,30.326,18.89,39.741,20.805l-0.347,1.622l0.269-0.032v16.42c-2-2.74-4.06-5.446-6.662-8.047    c-19.78-19.781-47.313-23.636-48.479-23.79l-9.639-1.282l1.314,9.701c0.154,1.167,4.024,28.824,23.805,48.604    c13.721,13.72,30.326,18.89,39.741,20.805l-0.347,1.622l0.269-0.032v16.419c-2-2.74-4.06-5.446-6.662-8.047    c-19.78-19.781-47.313-23.636-48.479-23.79l-9.639-1.282l1.314,9.701c0.154,1.167,4.024,28.824,23.805,48.604    c13.721,13.72,30.326,18.89,39.741,20.805l-0.347,1.622l0.269-0.032v16.419c-2-2.74-4.06-5.446-6.662-8.047    c-19.78-19.781-47.313-23.636-48.479-23.79l-9.639-1.282l1.314,9.701c0.154,1.167,4.024,28.824,23.805,48.604    c13.721,13.72,30.326,18.89,39.741,20.805l-0.347,1.622l0.269-0.032v56.018h15v-56.018l0.765,0.032l0.024-1.622    c9.414-1.915,26.074-7.085,39.794-20.805c19.781-19.78,23.667-47.438,23.821-48.604l1.298-9.701l-9.693,1.282    c-1.167,0.154-29.07,4.009-48.851,23.789c-2.602,2.602-4.158,5.308-7.158,8.048v-16.419l0.765,0.032l0.024-1.622    c9.414-1.915,26.074-7.085,39.794-20.805c19.781-19.78,23.667-47.438,23.821-48.604l1.298-9.701l-9.693,1.282    c-1.167,0.154-29.07,4.009-48.851,23.789c-2.602,2.602-4.158,5.308-7.158,8.048v-16.419l0.765,0.032l0.024-1.622    c9.414-1.915,26.074-7.085,39.794-20.805c19.781-19.78,23.667-47.437,23.821-48.604l1.298-9.701l-9.693,1.282    c-1.167,0.154-29.07,4.009-48.851,23.789c-2.602,2.602-4.158,5.308-7.158,8.048v-16.419L423.773,230.44z M441.02,185.381    c9.044-9.044,20.465-14.078,28.779-16.76c-2.682,8.317-7.716,19.737-16.76,28.78c-9.07,9.071-19.967,13.497-27.677,15.627    C427.473,205.355,431.887,194.514,441.02,185.381z M378.96,197.401c-9.044-9.044-14.078-20.465-16.76-28.779    c8.317,2.682,19.737,7.716,28.78,16.76c9.071,9.07,13.497,19.967,15.627,27.677C398.935,210.948,388.093,206.534,378.96,197.401z     M378.96,261.401c-9.044-9.044-14.078-20.465-16.76-28.779c8.317,2.682,19.737,7.716,28.78,16.76    c9.071,9.07,13.497,19.967,15.627,27.677C398.935,274.948,388.093,270.534,378.96,261.401z M378.96,325.401    c-9.044-9.044-14.078-20.465-16.76-28.779c8.317,2.682,19.737,7.716,28.78,16.76c9.071,9.07,13.497,19.967,15.627,27.677    C398.935,338.948,388.093,334.534,378.96,325.401z M378.96,389.401c-9.044-9.044-14.078-20.465-16.76-28.779    c8.317,2.682,19.737,7.716,28.78,16.76c9.071,9.07,13.497,19.967,15.627,27.677C398.935,402.948,388.093,398.534,378.96,389.401z     M441.02,377.381c9.044-9.044,20.465-14.078,28.779-16.76c-2.682,8.317-7.716,19.737-16.76,28.78    c-9.07,9.071-19.967,13.497-27.677,15.627C427.473,397.355,431.887,386.514,441.02,377.381z M441.02,313.381    c9.044-9.044,20.465-14.078,28.779-16.76c-2.682,8.317-7.716,19.737-16.76,28.78c-9.07,9.071-19.967,13.497-27.677,15.627    C427.473,333.355,431.887,322.514,441.02,313.381z M441.02,249.381c9.044-9.044,20.465-14.078,28.779-16.76    c-2.682,8.317-7.716,19.737-16.76,28.78c-9.07,9.071-19.967,13.497-27.677,15.627C427.473,269.355,431.887,258.514,441.02,249.381    z M441.02,121.381c9.044-9.044,20.465-14.078,28.779-16.76c-2.682,8.317-7.716,19.737-16.76,28.78    c-9.07,9.071-19.967,13.497-27.677,15.627C427.473,141.355,431.887,130.514,441.02,121.381z M378.96,133.401    c-9.044-9.044-14.078-20.465-16.76-28.779c8.317,2.682,19.737,7.716,28.78,16.76c9.071,9.07,13.497,19.967,15.627,27.677    C398.935,146.948,388.093,142.534,378.96,133.401z M415.987,127.448c-3.998-8.151-8.487-20.167-8.487-33.027    c0-12.8,4.509-24.85,8.513-33.027c3.998,8.15,8.487,20.167,8.487,33.027C424.5,107.22,419.992,119.269,415.987,127.448z" fill="#FFFFFF"/>
	</g>
</g>
<g>
	<g>
		<path d="M263.768,294.438l0.024-1.622c9.414-1.915,26.074-7.085,39.794-20.805c19.781-19.78,23.667-47.437,23.821-48.604    l1.298-9.701l-9.693,1.282c-1.167,0.154-29.07,4.009-48.851,23.789c-2.602,2.602-4.158,5.308-7.158,8.048v-16.419l0.762,0.029    l0.024-1.622c9.414-1.915,26.074-7.085,39.794-20.805c19.781-19.78,23.698-47.438,23.852-48.605l1.282-9.701l-9.701,1.282    c-1.007,0.133-21.727,3.03-40.099,16.521c0.367-2.96,0.582-5.994,0.582-9.085c0-27.849-16.7-51.391-17.411-52.379L256,97.575    l-6.089,8.467c-0.711,0.988-17.411,24.53-17.411,52.379c0,3.092,0.215,6.126,0.582,9.086    c-18.372-13.491-39.092-16.388-40.099-16.521l-9.701-1.282l1.282,9.701c0.154,1.167,4.009,28.824,23.789,48.605    c13.721,13.72,30.318,18.89,39.733,20.805l-0.351,1.622l0.265-0.032v16.42c-2-2.74-4.061-5.446-6.662-8.047    c-19.78-19.781-47.313-23.636-48.48-23.79l-9.639-1.282l1.314,9.701c0.154,1.167,4.024,28.824,23.805,48.604    c13.721,13.72,30.326,18.89,39.741,20.805l-0.347,1.622l0.269-0.032v16.419c-2-2.74-4.061-5.446-6.662-8.047    c-19.78-19.781-47.313-23.636-48.48-23.79l-9.639-1.282l1.314,9.701c0.154,1.167,4.024,28.824,23.805,48.604    c13.721,13.72,30.326,18.89,39.741,20.805l-0.347,1.622l0.269-0.032v16.419c-2-2.74-4.061-5.446-6.662-8.047    c-19.78-19.781-47.313-23.636-48.48-23.79l-9.639-1.282l1.314,9.701c0.154,1.167,4.024,28.824,23.805,48.604    c13.721,13.72,30.326,18.89,39.741,20.805l-0.347,1.622l0.269-0.032v56.018h15v-56.018l0.765,0.032l0.024-1.622    c9.414-1.915,26.074-7.085,39.794-20.805c19.781-19.78,23.667-47.438,23.821-48.604l1.298-9.701l-9.693,1.282    c-1.167,0.154-29.07,4.009-48.851,23.789c-2.602,2.602-4.158,5.308-7.158,8.048v-16.419l0.765,0.032l0.024-1.622    c9.414-1.915,26.074-7.085,39.794-20.805c19.781-19.78,23.667-47.438,23.821-48.604l1.298-9.701l-9.693,1.282    c-1.167,0.154-29.07,4.009-48.851,23.789c-2.602,2.602-4.158,5.308-7.158,8.048v-16.419L263.768,294.438z M281.02,249.381    c9.044-9.044,20.465-14.078,28.779-16.76c-2.682,8.317-7.716,19.737-16.76,28.78c-9.07,9.071-19.967,13.497-27.677,15.627    C267.473,269.355,271.887,258.514,281.02,249.381z M218.96,261.401c-9.044-9.044-14.078-20.465-16.76-28.779    c8.317,2.682,19.737,7.716,28.78,16.76c9.071,9.07,13.497,19.967,15.627,27.677C238.935,274.948,228.093,270.534,218.96,261.401z     M218.96,325.401c-9.044-9.044-14.078-20.465-16.76-28.779c8.317,2.682,19.737,7.716,28.78,16.76    c9.071,9.07,13.497,19.967,15.627,27.677C238.935,338.948,228.093,334.534,218.96,325.401z M218.96,389.401    c-9.044-9.044-14.078-20.465-16.76-28.779c8.317,2.682,19.737,7.716,28.78,16.76c9.071,9.07,13.497,19.967,15.627,27.677    C238.935,402.948,228.093,398.534,218.96,389.401z M281.02,377.381c9.044-9.044,20.465-14.078,28.779-16.76    c-2.682,8.317-7.716,19.737-16.76,28.78c-9.07,9.071-19.967,13.497-27.677,15.627C267.473,397.355,271.887,386.514,281.02,377.381    z M281.02,313.381c9.044-9.044,20.465-14.078,28.779-16.76c-2.682,8.317-7.716,19.737-16.76,28.78    c-9.07,9.071-19.967,13.497-27.677,15.627C267.473,333.355,271.887,322.514,281.02,313.381z M281.02,185.381    c9.044-9.044,20.465-14.078,28.779-16.76c-2.682,8.317-7.716,19.737-16.76,28.78c-9.07,9.071-19.967,13.497-27.677,15.627    C267.473,205.355,271.887,194.514,281.02,185.381z M218.96,197.401c-9.044-9.044-14.078-20.465-16.76-28.779    c8.317,2.682,19.737,7.716,28.78,16.76c9.071,9.07,13.497,19.967,15.627,27.677C238.935,210.948,228.093,206.534,218.96,197.401z     M255.987,191.448c-3.998-8.151-8.487-20.167-8.487-33.027c0-12.8,4.509-24.85,8.513-33.027c3.998,8.15,8.487,20.167,8.487,33.027    C264.5,171.22,259.992,183.269,255.987,191.448z" fill="#FFFFFF"/>
	</g>
</g>
<g>
	<g>
		<rect y="39.418" width="16" height="15" fill="#FFFFFF"/>
	</g>
</g>
<g>
	<g>
		<rect x="144" y="455.418" width="16" height="15" fill="#FFFFFF"/>
	</g>
</g>
<g>
	<g>
		<rect x="336" y="407.418" width="16" height="15" fill="#FFFFFF"/>
	</g>
</g>
<g>
	<g>
		<rect x="192" y="87.418" width="16" height="15" fill="#FFFFFF"/>
	</g>
</g>
<g>
	<g>
		<rect x="288" y="39.418" width="16" height="15" fill="#FFFFFF"/>
	</g>
</g>
<g>
	<g>
		<rect x="496" y="55.418" width="16" height="15" fill="#FFFFFF"/>
	</g>
</g>
<g>
</g>
<g>
</g>
<g>
</g>
<g>
</g>
<g>
</g>
<g>
</g>
<g>
</g>
<g>
</g>
<g>
</g>
<g>
</g>
<g>
</g>
<g>
</g>
<g>
</g>
<g>
</g>
<g>
</g>
</svg>
