<?xml version="1.0" encoding="iso-8859-1"?>
<!-- Generator: Adobe Illustrator 19.0.0, SVG Export Plug-In . SVG Version: 6.00 Build 0)  -->
<svg xmlns="http://www.w3.org/2000/svg" xmlns:xlink="http://www.w3.org/1999/xlink" version="1.1" id="Capa_1" x="0px" y="0px" viewBox="0 0 480.016 480.016" style="enable-background:new 0 0 480.016 480.016;" xml:space="preserve" width="512px" height="512px">
<g>
	<g>
		<rect x="192.02" y="152.01" width="16" height="16" fill="#FFFFFF"/>
	</g>
</g>
<g>
	<g>
		<rect x="192.02" y="192.01" width="16" height="16" fill="#FFFFFF"/>
	</g>
</g>
<g>
	<g>
		<rect x="192.02" y="232.01" width="16" height="16" fill="#FFFFFF"/>
	</g>
</g>
<g>
	<g>
		<rect x="224.02" y="176.01" width="16" height="16" fill="#FFFFFF"/>
	</g>
</g>
<g>
	<g>
		<rect x="224.02" y="216.01" width="16" height="16" fill="#FFFFFF"/>
	</g>
</g>
<g>
	<g>
		<rect x="360.02" y="208.01" width="16" height="16" fill="#FFFFFF"/>
	</g>
</g>
<g>
	<g>
		<rect x="408.02" y="160.01" width="16" height="16" fill="#FFFFFF"/>
	</g>
</g>
<g>
	<g>
		<rect x="408.02" y="256.01" width="16" height="16" fill="#FFFFFF"/>
	</g>
</g>
<g>
	<g>
		<rect x="360.02" y="304.01" width="16" height="16" fill="#FFFFFF"/>
	</g>
</g>
<g>
	<g>
		<rect x="408.02" y="352.01" width="16" height="16" fill="#FFFFFF"/>
	</g>
</g>
<g>
	<g>
		<rect x="312.02" y="352.01" width="16" height="16" fill="#FFFFFF"/>
	</g>
</g>
<g>
	<g>
		<path d="M478.735,395.65c-1.477-2.272-4.003-3.642-6.712-3.64h-51.048c26.857-17.76,43.023-47.802,43.048-80v-96    c-0.027-30.866-14.916-59.83-40-77.816v-30.872l29.656-29.656c3.124-3.125,3.123-8.19-0.002-11.314    c-1.5-1.499-3.534-2.342-5.654-2.342h-20.688l26.344-26.344c3.124-3.125,3.123-8.19-0.002-11.314    c-1.5-1.499-3.534-2.342-5.654-2.342h-40c-2.122,0-4.156,0.844-5.656,2.344l-10.344,10.344V16.01    c0.001-3.032-1.712-5.805-4.424-7.16l-16-8c-2.251-1.125-4.901-1.125-7.152,0l-16,8c-2.712,1.355-4.425,4.128-4.424,7.16v20.688    l-10.344-10.344c-1.5-1.5-3.534-2.344-5.656-2.344h-40c-4.418,0.001-7.999,3.583-7.998,8.002c0,2.121,0.843,4.154,2.342,5.654    l26.344,26.344h-20.688c-4.418,0.001-7.999,3.583-7.998,8.002c0,2.121,0.843,4.154,2.342,5.654l29.656,29.656v30.824    c-2.304,1.672-4.576,3.408-6.752,5.304c-53.122-75.926-157.737-94.411-233.662-41.289    C12.527,143.498-13.536,217.963,6.871,287.122c-4.476,7.384-6.844,15.853-6.848,24.488c0.018,17.286,4.043,34.332,11.76,49.8    l12.512,25.04c0.99,1.96,2.144,3.833,3.448,5.6H8.023c-4.418-0.001-8,3.581-8.001,7.999c0,1.119,0.235,2.226,0.689,3.249    c20.78,46.637,67.047,76.689,118.104,76.712h242.4c51.066-0.03,97.336-30.099,118.104-76.752    C480.424,400.786,480.205,397.924,478.735,395.65z M403.119,383.794l-23.784-23.784l36.688-36.688l23.784,23.784    C431.965,363.051,419.065,375.952,403.119,383.794z M185.279,366.61l-0.064-0.112c-0.986-1.5-1.897-3.049-2.728-4.64l-0.12-0.256    c-0.805-1.552-1.539-3.152-2.2-4.8l-0.16-0.432c-0.592-1.52-1.136-3.056-1.6-4.608c-0.08-0.264-0.136-0.536-0.208-0.8    c-0.4-1.416-0.8-2.848-1.048-4.288c-0.136-0.688-0.208-1.392-0.32-2.088c-0.168-1.056-0.352-2.112-0.456-3.2    c-0.248-1.712-0.352-3.536-0.352-5.376c0.035-30.913,25.087-55.965,56-56c1.87,0,3.74,0.096,5.6,0.288    c0.52,0.048,1.016,0.152,1.528,0.224c1.336,0.168,2.672,0.344,4,0.608c0.504,0.096,0.992,0.248,1.488,0.368    c1.304,0.296,2.6,0.608,3.864,0.992c0.432,0.136,0.848,0.312,1.28,0.456c1.304,0.44,2.608,0.888,3.872,1.416    c0.376,0.16,0.744,0.36,1.128,0.528c1.272,0.568,2.536,1.152,3.76,1.816c0.4,0.216,0.8,0.472,1.176,0.696    c1.16,0.664,2.312,1.336,3.416,2.08c0.48,0.32,0.928,0.68,1.392,1.016c0.992,0.712,1.984,1.416,2.92,2.184    c0.544,0.448,1.048,0.936,1.6,1.4c0.8,0.728,1.672,1.448,2.448,2.224c0.544,0.536,1.032,1.12,1.544,1.672    c0.744,0.8,1.496,1.6,2.192,2.4c0.128,0.152,0.232,0.32,0.36,0.472c7.984,9.893,12.368,22.207,12.432,34.92v0.24    c-0.017,2.914-0.265,5.822-0.744,8.696c-0.048,0.296-0.088,0.592-0.136,0.888c-0.527,2.963-1.281,5.881-2.256,8.728    c-8.479,24.543-32.727,40.03-58.56,37.4l-0.624-0.096c-8.669-0.988-16.984-4.002-24.272-8.8c-0.232-0.16-0.488-0.288-0.728-0.448    c-0.68-0.464-1.32-0.992-1.976-1.48c-0.8-0.624-1.68-1.216-2.472-1.88c-0.304-0.248-0.576-0.536-0.88-0.8    c-1.104-0.968-2.2-1.944-3.2-2.992c-0.096-0.096-0.176-0.2-0.272-0.304c-1.192-1.232-2.344-2.512-3.424-3.848v-0.056    C187.343,369.599,186.276,368.13,185.279,366.61z M224.023,256.01v8.472c-0.8,0.096-1.6,0.248-2.4,0.368    c-1.728,0.256-3.448,0.52-5.136,0.896c-0.968,0.216-1.912,0.488-2.864,0.736c-1.52,0.408-3.032,0.8-4.512,1.336    c-0.968,0.32-1.92,0.688-2.872,1.048c-1.424,0.552-2.824,1.136-4.2,1.768c-0.92,0.432-1.832,0.864-2.736,1.328    c-1.368,0.696-2.696,1.456-4,2.24c-0.84,0.496-1.68,0.984-2.488,1.512c-1.368,0.896-2.68,1.856-4,2.84    c-0.68,0.512-1.392,0.992-2.048,1.536c-1.6,1.32-3.2,2.728-4.696,4.184c-0.272,0.264-0.576,0.496-0.848,0.8    c-1.752,1.751-3.413,3.591-4.976,5.512c-0.072,0.088-0.152,0.16-0.224,0.248V128.418c0.592,0.04,1.2,0.04,1.792,0.088    c1.696,0.152,3.368,0.376,5.04,0.6c1.968,0.264,3.936,0.536,5.872,0.904c1.672,0.312,3.312,0.696,4.952,1.08    c1.88,0.448,3.76,0.912,5.6,1.448c1.6,0.472,3.2,1,4.8,1.544c1.8,0.616,3.592,1.256,5.352,1.96    c1.552,0.624,3.088,1.288,4.608,1.976c1.72,0.8,3.408,1.6,5.08,2.448c1.48,0.8,2.944,1.6,4.384,2.4c1.6,0.928,3.2,1.896,4.8,2.904    c1.4,0.896,2.784,1.816,4.136,2.776c1.52,1.072,3,2.192,4.456,3.336c1.312,1.016,2.608,2.056,3.864,3.128    c1.408,1.216,2.776,2.472,4.128,3.752c1.192,1.136,2.4,2.272,3.536,3.456c1.296,1.344,2.536,2.736,3.768,4.144    c1.08,1.232,2.168,2.456,3.2,3.736c1.184,1.472,2.288,3.008,3.4,4.544c0.952,1.312,1.912,2.616,2.808,4    c1.056,1.6,2.016,3.256,2.992,4.912c0.8,1.392,1.656,2.76,2.4,4.184c0.92,1.728,1.736,3.52,2.56,5.304    c0.672,1.432,1.376,2.848,1.984,4.312c0.8,1.88,1.432,3.816,2.104,5.744c0.512,1.448,1.072,2.872,1.52,4.352    c0.624,2.048,1.112,4.16,1.6,6.264c0.344,1.424,0.76,2.816,1.048,4.256c0.472,2.4,0.8,4.8,1.104,7.2    c0.16,1.24,0.416,2.448,0.536,3.696c0.368,3.68,0.568,7.416,0.568,11.2c-0.015,3.672-0.215,7.34-0.6,10.992    c-0.112,1.12-0.28,2.224-0.432,3.344c-0.336,2.576-0.752,5.144-1.272,7.696c-0.24,1.192-0.496,2.4-0.8,3.568    c-0.64,2.688-1.4,5.36-2.24,8c-0.28,0.88-0.52,1.768-0.8,2.64c-0.112,0.312-0.264,0.616-0.376,0.928    c-0.184-0.136-0.392-0.224-0.576-0.352c-0.184-0.128-0.584-0.432-0.888-0.632c-1.48-1-3.008-1.896-4.552-2.776    c-0.456-0.256-0.896-0.544-1.352-0.8l-1.536-0.8c-0.52-0.264-1.048-0.48-1.6-0.736s-1.264-0.6-1.904-0.888    c-0.424-0.192-0.8-0.408-1.272-0.592c-1.6-0.68-3.288-1.264-4.96-1.824c-0.432-0.144-0.848-0.328-1.288-0.472l-0.368-0.112    c-1.688-0.52-3.408-0.928-5.128-1.32c-0.592-0.136-1.168-0.32-1.768-0.44c-0.744-0.152-1.496-0.24-2.24-0.368    c-0.744-0.128-1.408-0.208-2.12-0.304l-0.856-0.128l-1.064-0.2v-8.48H224.023z M293.847,372.722    c6.197,7.486,13.493,13.989,21.64,19.288h-38.312C283.829,386.617,289.474,380.086,293.847,372.722z M301.175,355.89v-0.096    c0.726-2.547,1.308-5.132,1.744-7.744c0.096-0.584,0.184-1.176,0.272-1.768c0.304-2.133,0.512-4.307,0.624-6.52    c0-0.096,0-0.184,0-0.272l16.208-16.168l36.688,36.688l-23.816,23.816C319.997,377.544,309.037,367.891,301.175,355.89z     M368.023,275.322l36.688,36.688l-36.688,36.688l-36.688-36.688L368.023,275.322z M327.223,293.466l0.312-0.912    c1.024-3.088,1.88-6.232,2.72-9.376c0.304-1.136,0.68-2.248,0.96-3.392c0.8-3.152,1.36-6.352,1.944-9.6    c0.216-1.168,0.512-2.32,0.696-3.488c0.528-3.288,0.872-6.616,1.208-9.952c0.112-1.112,0.304-2.216,0.392-3.336    c0.264-3.392,0.352-6.824,0.408-10.248l20.8,20.8L327.223,293.466z M334.679,219.386c-0.248-1.96-0.584-3.904-0.896-5.856    l34.24-34.208l36.688,36.688l-36.688,36.688L334.679,219.386z M349.527,138.226c12.128-2.965,24.792-2.965,36.92,0l-18.424,18.472    L349.527,138.226z M356.711,168.01l-26.96,26.96c-0.088-0.296-0.184-0.592-0.272-0.896c-0.632-2.208-1.264-4.408-1.976-6.576    c-0.872-2.624-1.856-5.208-2.856-7.784c-1.36-3.515-2.829-6.963-4.408-10.344c-0.709-1.531-1.44-3.045-2.192-4.544    c-1.288-2.552-2.584-5.088-4-7.56l-0.072-0.136c5.64-5.205,11.998-9.572,18.88-12.968L356.711,168.01z M368.023,371.322    l18.456,18.456c-6.044,1.461-12.238,2.21-18.456,2.232c-6.227-0.019-12.431-0.757-18.488-2.2L368.023,371.322z M448.023,312.01    c-0.022,6.218-0.771,12.412-2.232,18.456l-18.456-18.456l20.688-20.688V312.01z M448.023,268.698l-32,32l-36.688-36.688    l36.688-36.688l32,32V268.698z M448.023,216.01v20.688l-20.688-20.688l18.456-18.456    C447.252,203.598,448.001,209.792,448.023,216.01z M439.807,180.914l-23.784,23.784l-36.688-36.688l23.784-23.784    C419.065,152.068,431.965,164.968,439.807,180.914z M428.711,80.01l-18.344,18.344c-1.5,1.5-2.344,3.534-2.344,5.656v24.84    c-5.154-2.366-10.508-4.267-16-5.68V99.322l19.312-19.312H428.711z M411.335,40.01h17.376l-26.344,26.344l-14.344,14.344    l-8.688-8.688L411.335,40.01z M360.023,20.954l8-4l8,4v31.744l-8,8l-8-8V20.954z M360.023,96.01v-4.688l8-8l8,8v29.096    c-2.648-0.224-5.296-0.408-8-0.408c-2.704,0-5.352,0.184-8,0.408V96.01z M307.335,40.01h17.376l32,32l-8.688,8.688l-14.344-14.344    L307.335,40.01z M307.335,80.01h17.376l19.312,19.312v23.824c-5.492,1.399-10.847,3.289-16,5.648V104.01    c0-2.122-0.844-4.156-2.344-5.656L307.335,80.01z M176.023,88.218c49.671,2.68,94.888,29.493,121.064,71.792v0.072    c3.453,5.59,6.542,11.396,9.248,17.384c0.272,0.592,0.56,1.168,0.8,1.76c1.136,2.592,2.176,5.224,3.2,7.864    c0.472,1.28,0.92,2.568,1.368,3.864c0.8,2.448,1.68,4.896,2.4,7.384c1,3.496,1.904,7.032,2.648,10.624    c0.352,1.648,0.592,3.328,0.888,4.992c0.488,2.816,0.928,5.648,1.256,8.52c0.176,1.464,0.336,2.936,0.464,4.416    c0.392,4.32,0.664,8.688,0.664,13.12c0,3.752-0.176,7.48-0.448,11.2c-0.088,1.208-0.224,2.4-0.344,3.6    c-0.248,2.52-0.544,5.032-0.912,7.52c-0.2,1.368-0.416,2.728-0.656,4.088c-0.424,2.4-0.92,4.8-1.456,7.128    c-0.288,1.288-0.552,2.576-0.872,3.856c-0.8,3.256-1.76,6.48-2.808,9.672c-0.36,1.096-0.8,2.176-1.168,3.264    c-0.888,2.512-1.816,5.008-2.84,7.472c-0.592,1.424-1.24,2.824-1.872,4.224c-0.888,1.968-1.808,3.928-2.784,5.856    c-0.72,1.416-1.448,2.832-2.216,4.232c-0.336,0.624-0.72,1.224-1.064,1.848c-0.256-0.8-0.6-1.6-0.888-2.352    c-0.488-1.344-0.944-2.704-1.512-4c-0.4-0.912-0.872-1.792-1.304-2.688c-0.6-1.256-1.184-2.512-1.856-3.728    c-0.52-0.928-1.112-1.816-1.672-2.728c-0.696-1.128-1.368-2.264-2.128-3.352c-0.64-0.92-1.344-1.792-2.032-2.688    c-0.44-0.568-0.848-1.16-1.304-1.72c-0.12-0.144-0.224-0.312-0.344-0.464l-0.752-0.856c-0.176-0.208-0.32-0.424-0.496-0.632    c0.632-1.52,1.088-3.08,1.656-4.608c0.64-1.728,1.296-3.44,1.856-5.184c0.8-2.536,1.496-5.104,2.152-7.68    c0.432-1.688,0.92-3.368,1.28-5.08c0.6-2.848,1.016-5.736,1.424-8.616c0.2-1.456,0.496-2.896,0.648-4.36    c0.928-8.646,0.949-17.365,0.064-26.016c-0.144-1.408-0.432-2.768-0.616-4.168c-0.368-2.784-0.72-5.6-1.272-8.296    c-0.328-1.648-0.8-3.24-1.2-4.864c-0.584-2.4-1.136-4.8-1.856-7.2c-0.512-1.696-1.168-3.328-1.752-4.992    c-0.8-2.2-1.52-4.416-2.4-6.568c-0.704-1.68-1.52-3.296-2.288-4.936c-0.952-2.048-1.88-4.104-2.936-6.088    c-0.864-1.6-1.832-3.2-2.768-4.8c-1.12-1.896-2.216-3.808-3.432-5.64c-1.024-1.56-2.136-3.04-3.2-4.544    c-1.272-1.76-2.536-3.52-3.896-5.208c-1.176-1.464-2.4-2.856-3.664-4.264c-1.424-1.6-2.832-3.2-4.328-4.76    c-1.32-1.352-2.696-2.64-4.072-3.936c-1.552-1.456-3.104-2.912-4.728-4.296c-1.448-1.232-2.944-2.4-4.44-3.568    c-1.68-1.304-3.368-2.6-5.112-3.824c-1.56-1.096-3.16-2.128-4.8-3.16c-1.8-1.144-3.608-2.256-5.456-3.312    c-1.672-0.952-3.368-1.848-5.08-2.728c-1.904-0.968-3.816-1.904-5.768-2.784c-1.768-0.8-3.552-1.536-5.36-2.256    c-2-0.8-4-1.528-6.064-2.216c-1.84-0.624-3.707-1.208-5.6-1.752c-2.096-0.6-4.216-1.136-6.352-1.6    c-1.912-0.448-3.824-0.864-5.768-1.216c-2.184-0.4-4.392-0.728-6.608-1.016c-1.96-0.248-3.928-0.488-5.912-0.656    c-0.888-0.072-1.744-0.232-2.64-0.288L176.023,88.218z M176.023,381.178v0.04c1.136,1.408,2.4,2.744,3.592,4.056    c0.336,0.352,0.632,0.728,0.976,1.08l0.144,0.144c0.984,1.008,2.04,1.936,3.088,2.88c0.56,0.504,1.08,1.056,1.656,1.544    c-3.2,0.395-6.365,0.68-9.496,0.856L176.023,381.178z M134.882,91.665c8.27-1.848,16.679-3.001,25.141-3.447V276.01    c-0.128-0.112-0.28-0.192-0.408-0.304c-1.854-1.612-3.831-3.078-5.912-4.384c-0.336-0.216-0.68-0.416-1.016-0.624    c-2.139-1.279-4.375-2.386-6.688-3.312c-0.336-0.136-0.68-0.248-1.016-0.376c-2.424-0.918-4.921-1.632-7.464-2.136    c-0.248-0.048-0.504-0.072-0.752-0.12c-2.754-0.492-5.546-0.741-8.344-0.744c-12.252-0.026-24.034,4.713-32.856,13.216    c-0.424-4.484-1.306-8.912-2.632-13.216h19.088c22.08-0.026,39.974-17.92,40-40c0-4.418-3.582-8-8-8h-24    c-17.212,0.06-32.447,11.146-37.8,27.504c-6.045-7.841-13.777-14.22-22.624-18.664l-7.152,14.36    c14.525,7.206,24.604,21.065,26.984,37.104c-8.699-7.922-20.042-12.31-31.808-12.304c-2.307,0.016-4.609,0.203-6.888,0.56    l-1.088,0.16c-7.215,1.226-14.048,4.11-19.96,8.424C1.38,191.227,52.955,109.972,134.882,91.665z M97.391,248.01    c3.403-9.582,12.464-15.988,22.632-16h14.632c-3.403,9.582-12.464,15.988-22.632,16H97.391z M26.095,354.258    c-6.606-13.247-10.053-27.845-10.072-42.648c0.011-6.578,2.093-12.985,5.952-18.312l0.08-0.088c1.37-1.868,2.936-3.585,4.672-5.12    c0.4-0.36,0.8-0.688,1.248-1.032c1.319-1.058,2.72-2.008,4.192-2.84c0.656-0.368,1.304-0.752,1.992-1.08    c1.427-0.663,2.904-1.214,4.416-1.648c0.704-0.216,1.384-0.496,2.112-0.656c10.562-2.48,21.654,0.714,29.28,8.432l12.4,12.4    c3.174,3.001,8.138,3.001,11.312,0l12.4-12.4c12.341-12.34,32.349-12.34,44.689,0.001c5.925,5.926,9.255,13.963,9.255,22.343    c-0.019,14.803-3.466,29.401-10.072,42.648l-12.512,25.032c-2.038,4.035-5.225,7.375-9.16,9.6c-0.056,0-0.104,0.088-0.16,0.128    c-8.977,5.073-20.237,3.531-27.52-3.768l-6.92-6.92c-3.124-3.123-8.188-3.123-11.312,0l-6.92,6.92    c-8.987,8.983-23.555,8.979-32.538-0.008c-1.745-1.746-3.197-3.761-4.302-5.968L26.095,354.258z M160.023,369.898v21.888    c-3.573-0.208-7.176-0.544-10.808-1.008c0.934-1.386,1.781-2.829,2.536-4.32L160.023,369.898z M361.231,464.01h-242.4    c-40.199-0.017-77.382-21.325-97.72-56h437.824C438.6,442.68,401.425,463.987,361.231,464.01z" fill="#FFFFFF"/>
	</g>
</g>
<g>
</g>
<g>
</g>
<g>
</g>
<g>
</g>
<g>
</g>
<g>
</g>
<g>
</g>
<g>
</g>
<g>
</g>
<g>
</g>
<g>
</g>
<g>
</g>
<g>
</g>
<g>
</g>
<g>
</g>
</svg>
