<?xml version="1.0" encoding="iso-8859-1"?>
<!-- Generator: Adobe Illustrator 19.0.0, SVG Export Plug-In . SVG Version: 6.00 Build 0)  -->
<svg xmlns="http://www.w3.org/2000/svg" xmlns:xlink="http://www.w3.org/1999/xlink" version="1.1" id="Capa_1" x="0px" y="0px" viewBox="0 0 512 512" style="enable-background:new 0 0 512 512;" xml:space="preserve" width="512px" height="512px">
<g>
	<g>
		<path d="M341.042,46.87c-6.407-5.254-15.858-4.316-21.11,2.089C301.161,71.853,284.359,93.015,271,116.59V15.2    c0-8.284-6.716-15-15-15s-15,6.716-15,15v101.39c-13.359-23.574-30.161-44.737-48.932-67.631    c-5.252-6.406-14.703-7.343-21.11-2.089c-6.406,5.252-7.342,14.704-2.089,21.11c41.133,50.169,68.719,88.497,71.146,151.053    l-30.905,60.678c-8.326,16.348-7.747,35.588,1.55,51.469c9.103,15.549,25.194,25.264,43.023,25.986    c0.768,0.032,1.541,0.047,2.317,0.047c0.771,0,1.539-0.016,2.32-0.047c17.853-0.731,33.943-10.453,43.041-26.006    c9.289-15.878,9.864-35.114,1.538-51.456l-30.914-60.675c2.428-62.553,30.014-100.881,71.146-151.049    C348.383,61.574,347.448,52.122,341.042,46.87z M276.169,293.324c3.664,7.192,3.401,15.673-0.702,22.688    c-3.972,6.789-10.669,10.864-18.356,11.179c-0.721,0.028-1.433,0.032-2.194,0.001c-7.7-0.313-14.395-4.383-18.367-11.168    c-4.108-7.017-4.372-15.502-0.708-22.697l20.161-39.583L276.169,293.324z" fill="#FFFFFF"/>
	</g>
</g>
<g>
	<g>
		<path d="M497,269.622H362.885c-28.771,0-39.215,23.269-39.215,38.909c0,37.098-30.394,67.278-67.753,67.278    c-37.991,0-67.75-29.324-67.75-66.771c-0.011-15.845-10.464-39.417-39.215-39.417H15c-8.284,0-15,6.716-15,15v182.24    c0,24.78,20.159,44.939,44.938,44.939h422.124c24.779,0,44.938-20.159,44.938-44.938v-182.24    C512,276.338,505.284,269.622,497,269.622z M482,466.862c0,8.236-6.701,14.938-14.938,14.938H44.938    C36.701,481.8,30,475.099,30,466.862v-10.079h452V466.862z M482,426.783H30V299.622h118.951c2.196,0,8.869,0,9.215,9.594    c0.043,26.032,10.239,50.37,28.72,68.546c18.391,18.087,42.906,28.048,69.03,28.048c26.116,0,50.649-10.069,69.079-28.354    c18.451-18.304,28.63-42.716,28.675-68.754c0.349-9.08,6.788-9.08,9.215-9.08H482V426.783z" fill="#FFFFFF"/>
	</g>
</g>
<g>
</g>
<g>
</g>
<g>
</g>
<g>
</g>
<g>
</g>
<g>
</g>
<g>
</g>
<g>
</g>
<g>
</g>
<g>
</g>
<g>
</g>
<g>
</g>
<g>
</g>
<g>
</g>
<g>
</g>
</svg>
