<?xml version="1.0" encoding="utf-8"?>
<!-- Generator: Adobe Illustrator 16.0.0, SVG Export Plug-In . SVG Version: 6.00 Build 0)  -->
<!DOCTYPE svg PUBLIC "-//W3C//DTD SVG 1.1//EN" "http://www.w3.org/Graphics/SVG/1.1/DTD/svg11.dtd">
<svg version="1.1" id="Capa_1" xmlns="http://www.w3.org/2000/svg" xmlns:xlink="http://www.w3.org/1999/xlink" x="0px" y="0px"
	 width="311.541px" height="311.541px" viewBox="0 0 311.541 311.541" enable-background="new 0 0 311.541 311.541"
	 xml:space="preserve">
<circle fill="#FF0000" stroke="#D10514" stroke-width="5" stroke-miterlimit="10" cx="155.898" cy="154.905" r="146.373"/>
<g>
	<path fill="#FFFFFF" d="M155.771,8.533c-80.91,0-146.5,65.589-146.5,146.501c0,35.256,12.461,67.604,33.213,92.882
		c3.201-25.634,28.804-47.313,64.705-57.58c13.115,12.221,30.059,19.636,48.582,19.636c18.088,0,34.698-7.043,47.68-18.75
		c36.213,11.165,61.265,34.112,62.089,60.783c22.838-25.837,36.731-59.771,36.731-96.971
		C302.271,74.123,236.681,8.533,155.771,8.533z M155.771,192.622c-9.352,0-18.164-2.569-25.988-7.021
		c-18.857-10.729-31.841-32.687-31.841-58.038c0-35.873,25.942-65.059,57.829-65.059c31.892,0,57.83,29.186,57.83,65.059
		c0,25.74-13.391,47.968-32.716,58.512C173.271,190.228,164.776,192.622,155.771,192.622z"/>
</g>
</svg>
